<?xml version="1.0" encoding="UTF-8" standalone="no"?>
<!-- Created with Inkscape (http://www.inkscape.org/) -->

<svg
   xmlns:dc="http://purl.org/dc/elements/1.1/"
   xmlns:cc="http://creativecommons.org/ns#"
   xmlns:rdf="http://www.w3.org/1999/02/22-rdf-syntax-ns#"
   xmlns:svg="http://www.w3.org/2000/svg"
   xmlns="http://www.w3.org/2000/svg"
   xmlns:sodipodi="http://sodipodi.sourceforge.net/DTD/sodipodi-0.dtd"
   xmlns:inkscape="http://www.inkscape.org/namespaces/inkscape"
   width="210mm"
   height="297mm"
   viewBox="0 0 744.09448819 1052.3622047"
   id="svg2"
   version="1.1"
   inkscape:version="0.91 r13725"
   sodipodi:docname="logo.svg">
  <defs
     id="defs4">
    <clipPath
       clipPathUnits="userSpaceOnUse"
       id="clipPath4330">
      <path
         style="fill:none;fill-rule:evenodd;stroke:#000000;stroke-width:1.07456994px;stroke-linecap:butt;stroke-linejoin:miter;stroke-opacity:1"
         d="M 727.629,374.73038 843.58581,259.63721 826.91701,21.938832 453.68103,22.776962 455.85522,383.20743 Z"
         id="path4332"
         inkscape:connector-curvature="0" />
    </clipPath>
    <clipPath
       clipPathUnits="userSpaceOnUse"
       id="clipPath4354">
      <path
         style="fill:none;fill-rule:evenodd;stroke:#000000;stroke-width:1px;stroke-linecap:butt;stroke-linejoin:miter;stroke-opacity:1"
         d="M 485.12117,771.8913 525.83064,688.77614 725.98553,570.8883 734.46667,310.51732 381.65127,108.6662 316.3465,160.40115 289.20685,457.24103 334.15689,620.07891 Z"
         id="path4356"
         inkscape:connector-curvature="0" />
    </clipPath>
    <clipPath
       clipPathUnits="userSpaceOnUse"
       id="clipPath4372">
      <path
         style="fill:none;fill-rule:evenodd;stroke:#000000;stroke-width:1.07456994px;stroke-linecap:butt;stroke-linejoin:miter;stroke-opacity:1"
         d="M 732.6461,375.39087 606.61435,499.57686 27.699286,484.38319 l 0,-149.92678 592.764704,-146.45558 z"
         id="path4374"
         inkscape:connector-curvature="0" />
    </clipPath>
    <clipPath
       clipPathUnits="userSpaceOnUse"
       id="clipPath4517">
      <path
         style="fill:none;fill-rule:evenodd;stroke:#000000;stroke-width:1px;stroke-linecap:butt;stroke-linejoin:miter;stroke-opacity:1"
         d="m 354.38949,660.15375 33.5836,23.98828 211.0969,123.53967 -195.50452,56.37247 -109.14669,-184.70979 z"
         id="path4519"
         inkscape:connector-curvature="0" />
    </clipPath>
    <clipPath
       clipPathUnits="userSpaceOnUse"
       id="clipPath4558">
      <path
         style="fill:none;fill-rule:evenodd;stroke:#000000;stroke-width:1px;stroke-linecap:butt;stroke-linejoin:miter;stroke-opacity:1"
         d="M 161.92092,799.2858 375.41666,676.94555 575.71883,800.48522 374.21724,928.82254 155.92385,795.68756 l 2.39883,0 z"
         id="path4560"
         inkscape:connector-curvature="0"
         clip-path="none" />
    </clipPath>
    <clipPath
       clipPathUnits="userSpaceOnUse"
       id="clipPath4930">
      <path
         style="fill:none;fill-rule:evenodd;stroke:#000000;stroke-width:1px;stroke-linecap:butt;stroke-linejoin:miter;stroke-opacity:1"
         d="M 251.66856,833.95381 371.40514,675.41371 490.03305,841.71451 822.63466,709.78254 819.30865,119.96901 248.34254,4.6671137 -79.824388,205.33676 -25.499457,779.62888 223.95175,843.93186 Z"
         id="path4932"
         inkscape:connector-curvature="0" />
    </clipPath>
    <clipPath
       clipPathUnits="userSpaceOnUse"
       id="clipPath4940">
      <path
         style="fill:none;fill-rule:evenodd;stroke:#000000;stroke-width:1.28699696px;stroke-linecap:butt;stroke-linejoin:miter;stroke-opacity:1"
         d="m -732.356,24.822416 112.96981,156.693724 48.04463,79.84986 -129.85035,167.73158 -186.98453,-301.14775 -383.05856,-449.61585 238.9247,50.14058 186.98449,155.33312 z"
         id="path4942"
         inkscape:connector-curvature="0" />
    </clipPath>
    <clipPath
       clipPathUnits="userSpaceOnUse"
       id="clipPath4946">
      <path
         style="fill:none;fill-rule:evenodd;stroke:#000000;stroke-width:1.28699696px;stroke-linecap:butt;stroke-linejoin:miter;stroke-opacity:1"
         d="m 485.64033,1215.2986 -58.43267,-35.6065 -36.35808,-44.6631 106.47728,-94.6422 -145.4324,-276.64642 229.83514,-1.00666 158.41743,129.42405 -24.67157,172.39983 -101.28327,83.8877 41.55211,160.1246 -84.40274,-47.686 z"
         id="path4948"
         inkscape:connector-curvature="0" />
    </clipPath>
    <clipPath
       clipPathUnits="userSpaceOnUse"
       id="clipPath4994">
      <path
         style="fill:none;fill-rule:evenodd;stroke:#000000;stroke-width:1px;stroke-linecap:butt;stroke-linejoin:miter;stroke-opacity:1"
         d="M 447.70778,501.79476 160.35379,402.90021 283.5055,134.20557 460.76932,100.61874 457.03745,363.71557 Z"
         id="path4996"
         inkscape:connector-curvature="0" />
    </clipPath>
    <clipPath
       clipPathUnits="userSpaceOnUse"
       id="clipPath5131">
      <path
         style="fill:none;fill-rule:evenodd;stroke:#000000;stroke-width:1.28699696px;stroke-linecap:butt;stroke-linejoin:miter;stroke-opacity:1"
         d="M -747.41647,261.25839 -904.7673,88.321468 l 59.00656,-108.651765 231.65539,159.603677 93.97342,198.93937 -126.75484,19.01955 z"
         id="path5133"
         inkscape:connector-curvature="0" />
    </clipPath>
    <clipPath
       clipPathUnits="userSpaceOnUse"
       id="clipPath5213">
      <path
         style="fill:none;fill-rule:evenodd;stroke:#000000;stroke-width:1.28699696px;stroke-linecap:butt;stroke-linejoin:miter;stroke-opacity:1"
         d="m -864.6438,120.69104 143.13753,163.99021 132.0822,-78.78078 -48.87624,-47.0431 z"
         id="path5215"
         inkscape:connector-curvature="0" />
    </clipPath>
    <clipPath
       clipPathUnits="userSpaceOnUse"
       id="clipPath5219">
      <path
         style="fill:none;fill-rule:evenodd;stroke:#000000;stroke-width:1.28699696px;stroke-linecap:butt;stroke-linejoin:miter;stroke-opacity:1"
         d="m 405.55634,1146.9777 80.29668,92.1145 157.68403,-43.9685 -52.94925,-56.262 -162.33891,-27.1895 z"
         id="path5221"
         inkscape:connector-curvature="0" />
    </clipPath>
  </defs>
  <sodipodi:namedview
     id="base"
     pagecolor="#ffffff"
     bordercolor="#666666"
     borderopacity="1.0"
     inkscape:pageopacity="0.0"
     inkscape:pageshadow="2"
     inkscape:zoom="0.28776673"
     inkscape:cx="345.05043"
     inkscape:cy="535.73848"
     inkscape:document-units="px"
     inkscape:current-layer="layer1"
     showgrid="false"
     inkscape:snap-bbox="false"
     inkscape:window-width="1366"
     inkscape:window-height="705"
     inkscape:window-x="-8"
     inkscape:window-y="-8"
     inkscape:window-maximized="1"
     showguides="false" />
  <metadata
     id="metadata7">
    <rdf:RDF>
      <cc:Work
         rdf:about="">
        <dc:format>image/svg+xml</dc:format>
        <dc:type
           rdf:resource="http://purl.org/dc/dcmitype/StillImage" />
        <dc:title></dc:title>
      </cc:Work>
    </rdf:RDF>
  </metadata>
  <g
     inkscape:label="Calque 1"
     inkscape:groupmode="layer"
     id="layer1">
    <g
       id="g5432"
       transform="matrix(0.96083646,0,0,1,-34.079917,-10.425111)">
      <g
         transform="matrix(0.87382172,0,0,1,91.727915,0)"
         id="g5378">
        <g
           id="g5328">
          <g
             id="g5277">
            <g
               id="g5225">
              <path
                 inkscape:connector-curvature="0"
                 clip-path="url(#clipPath4930)"
                 id="path4135"
                 d="M 371.56641,84.953125 23.662109,285.81445 l 0,401.72461 347.904301,200.86133 347.90429,-200.86133 0,-401.72461 L 371.56641,84.953125 Z"
                 style="opacity:1;fill:none;fill-opacity:1;stroke:#000000;stroke-width:15;stroke-linejoin:miter;stroke-miterlimit:4;stroke-dasharray:none;stroke-opacity:1" />
              <path
                 inkscape:connector-curvature="0"
                 id="rect4137"
                 d="M 370.85156,91.408203 24.996094,291.08984 c 0.135262,0.8474 0.157077,1.6841 0.103515,2.63477 -0.0058,1.37033 0.03175,2.7376 0.03125,4.10742 -0.06684,1.03748 -0.02175,0.46186 -0.115234,1.49609 -0.01932,0.21371 0.01691,0.43978 -0.05859,0.64063 -0.0321,0.0854 -0.267398,-0.23098 -0.228515,-0.14844 0.156479,0.33217 0.341033,0.64952 0.511718,0.97461 0.282373,1.29525 0.592733,1.80078 0.369141,2.94141 l 0.542969,1.21679 c -0.3575,0.32345 -0.01029,-0.0425 0.332031,1.01368 0.622288,1.92001 0.534267,3.07001 0.501953,5 2.76e-4,1.44441 0.02051,2.88972 0,4.33398 -0.04063,1.47808 -0.05831,2.95077 0.140625,4.41992 -0.02634,0.49756 -0.221782,3.16829 -0.671875,3.46289 0.01616,0.57439 0.0023,1.09829 -0.01758,1.83594 -0.163511,1.36422 -0.513685,2.76418 -0.548828,4.13867 -0.06029,2.35815 0.309605,4.75575 -0.441406,7.06055 -0.282044,0.9578 -0.420456,1.9706 -0.847657,2.87305 -0.03712,0.0784 -0.11046,-0.31679 -0.11914,-0.23047 -0.171188,1.70254 0.144973,3.45324 -0.0078,5.1582 -0.01058,3.93445 0.05196,7.86829 0.03906,11.80274 -0.0163,1.0235 -0.03256,1.24385 -0.03906,1.66601 0.30007,0.47449 0.533877,0.91315 0.638672,1.18164 0.668661,1.71318 0.401256,2.9814 0.271484,4.69922 0.122848,0.74818 -0.30447,1.51113 -0.392578,2.26953 0.0056,0.15255 0.0083,0.31828 0.02734,0.41797 0.0057,0.0301 -0.02685,0.11624 -0.03125,0.0859 -0.02442,-0.16796 -0.01568,-0.3353 0.0039,-0.50391 -0.01121,-0.30509 -0.03067,-0.5952 -0.189453,-0.46875 -0.804795,0.64097 -1.50354,1.39518 -2.18164,2.17383 0.200122,0.66599 0.290482,1.31738 0.30664,1.96484 L 370.85156,168.4316 l 0,-77.023437 z"
                 style="opacity:1;fill:#000000;fill-opacity:1;stroke:none;stroke-width:8.68672943;stroke-linejoin:miter;stroke-miterlimit:4;stroke-dasharray:none;stroke-opacity:1" />
              <rect
                 clip-path="url(#clipPath4372)"
                 transform="matrix(0.8660254,0.5,0,1,0,0)"
                 y="352.79126"
                 x="-168.96564"
                 height="121.14083"
                 width="857.29291"
                 id="rect4366"
                 style="opacity:1;fill:#000000;fill-opacity:1;stroke:none;stroke-width:15;stroke-linejoin:miter;stroke-miterlimit:4;stroke-dasharray:none;stroke-opacity:1" />
              <rect
                 clip-path="url(#clipPath5219)"
                 transform="matrix(0.60373306,-0.79718655,0,1,0,0)"
                 y="823.45062"
                 x="-270.08875"
                 height="341.802"
                 width="877.78845"
                 id="rect4924"
                 style="opacity:1;fill:none;fill-opacity:1;stroke:#000000;stroke-width:19.30495453;stroke-linejoin:miter;stroke-miterlimit:4;stroke-dasharray:none;stroke-opacity:1" />
              <rect
                 clip-path="url(#clipPath5213)"
                 style="opacity:1;fill:none;fill-opacity:1;stroke:#000000;stroke-width:19.30495644;stroke-linejoin:miter;stroke-miterlimit:4;stroke-dasharray:none;stroke-opacity:1"
                 id="rect4926"
                 width="877.78845"
                 height="341.802"
                 x="-1326.797"
                 y="-151.98364"
                 transform="matrix(-0.60373306,-0.79718655,0,1,0,0)" />
              <g
                 clip-path="url(#clipPath4994)"
                 transform="translate(-37.202082,93.413368)"
                 id="g4988">
                <rect
                   clip-path="url(#clipPath4946)"
                   transform="matrix(0.60373306,-0.79718655,0,1,34.660421,-153.89227)"
                   y="823.45062"
                   x="-270.08875"
                   height="341.802"
                   width="877.78845"
                   id="rect4984"
                   style="opacity:1;fill:none;fill-opacity:1;stroke:#000000;stroke-width:19.30495644;stroke-linejoin:miter;stroke-miterlimit:4;stroke-dasharray:none;stroke-opacity:1" />
                <rect
                   style="opacity:1;fill:none;fill-opacity:1;stroke:#000000;stroke-width:19.30495644;stroke-linejoin:miter;stroke-miterlimit:4;stroke-dasharray:none;stroke-opacity:1"
                   id="rect4986"
                   width="877.78845"
                   height="341.802"
                   x="-270.08875"
                   y="823.45062"
                   transform="matrix(0.60373306,-0.79718655,0,1,-51.414045,-40.264398)"
                   clip-path="url(#clipPath4946)" />
              </g>
              <g
                 id="g4998"
                 transform="translate(-35.202082,95.413368)"
                 clip-path="url(#clipPath4994)">
                <rect
                   style="opacity:1;fill:none;fill-opacity:1;stroke:#000000;stroke-width:19.30495644;stroke-linejoin:miter;stroke-miterlimit:4;stroke-dasharray:none;stroke-opacity:1"
                   id="rect5000"
                   width="877.78845"
                   height="341.802"
                   x="-270.08875"
                   y="823.45062"
                   transform="matrix(0.60373306,-0.79718655,0,1,34.660421,-153.89227)"
                   clip-path="url(#clipPath4946)" />
                <rect
                   clip-path="url(#clipPath4946)"
                   transform="matrix(0.60373306,-0.79718655,0,1,-51.414045,-40.264398)"
                   y="823.45062"
                   x="-270.08875"
                   height="341.802"
                   width="877.78845"
                   id="rect5002"
                   style="opacity:1;fill:none;fill-opacity:1;stroke:#000000;stroke-width:19.30495644;stroke-linejoin:miter;stroke-miterlimit:4;stroke-dasharray:none;stroke-opacity:1" />
              </g>
              <path
                 inkscape:connector-curvature="0"
                 id="path5004"
                 d="m 382.51667,274.26731 -26.12309,14.92748 -167.93415,222.04627 214.58253,80.2352 -14.92748,-244.43748 z"
                 style="fill:none;fill-rule:evenodd;stroke:#000000;stroke-width:1px;stroke-linecap:butt;stroke-linejoin:miter;stroke-opacity:1" />
              <path
                 inkscape:connector-curvature="0"
                 id="path5067"
                 d="m 483.38985,782.29485 c -2.25678,-2.80826 -4.10324,-5.42222 -4.10324,-5.80878 0,-0.54623 12.69517,6.37031 14.18929,7.73057 0.18448,0.16796 -1.08617,0.9531 -2.82369,1.74476 -2.83402,1.29127 -3.58137,0.91395 -7.26236,-3.66655 z"
                 style="opacity:1;fill:none;fill-opacity:1;stroke:#000000;stroke-width:19.79122925;stroke-linejoin:miter;stroke-miterlimit:4;stroke-dasharray:none;stroke-opacity:1" />
              <g
                 id="g5159">
                <path
                   style="opacity:1;fill:none;fill-opacity:1;stroke:#000000;stroke-width:19.79122925;stroke-linejoin:miter;stroke-miterlimit:4;stroke-dasharray:none;stroke-opacity:1"
                   d="m 469.67033,799.12776 c -28.82516,-37.64262 -70.69902,-93.34201 -70.17295,-93.34201 0.46009,0 135.28844,77.59301 136.10108,78.32547 0.13023,0.11733 -8.77586,5.38564 -19.79122,11.70733 -11.01537,6.32169 -23.11881,13.28756 -26.89655,15.47971 l -6.8686,3.98572 -12.37176,-16.15622 z"
                   id="path5063"
                   inkscape:connector-curvature="0" />
                <g
                   id="g5135">
                  <path
                     inkscape:connector-curvature="0"
                     id="path5065"
                     d="m 460.6858,770.04858 c -12.77032,-16.83976 -23.06492,-30.81249 -22.87689,-31.05052 0.50577,-0.64026 22.12549,11.78975 23.66559,13.60625 0.72568,0.85591 13.02939,8.3024 27.34159,16.54776 14.31219,8.24535 25.89006,15.09111 25.72859,15.21278 -2.33448,1.75919 -28.81176,16.40275 -29.58105,16.36013 -0.58249,-0.0323 -11.50751,-13.83665 -24.27783,-30.6764 z"
                     style="opacity:1;fill:none;fill-opacity:1;stroke:#000000;stroke-width:19.79122925;stroke-linejoin:miter;stroke-miterlimit:4;stroke-dasharray:none;stroke-opacity:1" />
                  <g
                     id="g5075">
                    <g
                       id="g5043">
                      <path
                         inkscape:connector-curvature="0"
                         id="path5010"
                         d="m 331.12714,521.08839 c -4.44023,-3.37871 -12.90125,-8.89819 -18.80227,-12.26552 l -10.72912,-6.12242 0,-20.69082 0,-20.69082 13.41764,-17.89039 c 7.3797,-9.83971 16.61608,-21.95423 20.52529,-26.92114 l 7.10763,-9.03074 0,59.87747 c 0,35.36314 -0.70541,59.87748 -1.72301,59.87748 -0.94765,0 -5.35592,-2.7644 -9.79616,-6.1431 z"
                         style="opacity:1;fill:none;fill-opacity:1;stroke:#000000;stroke-width:27.98902512;stroke-linejoin:miter;stroke-miterlimit:4;stroke-dasharray:none;stroke-opacity:1" />
                      <path
                         inkscape:connector-curvature="0"
                         id="path5022"
                         d="m 268.90661,489.41874 c -1.20109,-0.74492 -2.18447,-1.39502 -2.18528,-1.44468 -0.001,-0.0911 3.16251,-0.66186 3.63276,-0.65538 0.14534,0.002 0.47437,0.45196 0.77229,1.0561 0.5692,1.15428 0.84778,2.24593 0.57314,2.24593 -0.0934,0 -0.26864,0.0343 -0.38944,0.0762 -0.12081,0.0419 -1.20237,-0.53326 -2.40347,-1.27818 z"
                         style="opacity:1;fill:none;fill-opacity:1;stroke:#000000;stroke-width:2.47390366;stroke-linejoin:miter;stroke-miterlimit:4;stroke-dasharray:none;stroke-opacity:1" />
                      <g
                         id="g5026">
                        <g
                           id="g4378">
                          <g
                             id="g4358">
                            <g
                               id="g4336">
                              <rect
                                 clip-path="url(#clipPath4330)"
                                 transform="matrix(0.8660254,0.5,0,1,0,0)"
                                 y="48.065228"
                                 x="471.4646"
                                 height="315.98895"
                                 width="354.62338"
                                 id="rect4160"
                                 style="opacity:1;fill:#000000;fill-opacity:1;stroke:none;stroke-width:15;stroke-linejoin:miter;stroke-miterlimit:4;stroke-dasharray:none;stroke-opacity:1" />
                              <rect
                                 style="opacity:1;fill:#000000;fill-opacity:1;stroke:none;stroke-width:15;stroke-linejoin:miter;stroke-miterlimit:4;stroke-dasharray:none;stroke-opacity:1"
                                 id="rect4334"
                                 width="354.62338"
                                 height="315.98895"
                                 x="471.4646"
                                 y="48.065228"
                                 transform="matrix(0.8660254,0.5,0,1,-38.224781,-22.46707)"
                                 clip-path="url(#clipPath4330)" />
                            </g>
                            <g
                               id="g4342"
                               transform="translate(0,110)"
                               clip-path="url(#clipPath4354)">
                              <rect
                                 style="opacity:1;fill:#000000;fill-opacity:1;stroke:none;stroke-width:15;stroke-linejoin:miter;stroke-miterlimit:4;stroke-dasharray:none;stroke-opacity:1"
                                 id="rect4344"
                                 width="354.62338"
                                 height="315.98895"
                                 x="471.4646"
                                 y="48.065228"
                                 transform="matrix(0.8660254,0.5,0,1,0,0)"
                                 clip-path="url(#clipPath4330)" />
                              <rect
                                 clip-path="url(#clipPath4330)"
                                 transform="matrix(0.8660254,0.5,0,1,-38.224781,-22.46707)"
                                 y="48.065228"
                                 x="471.4646"
                                 height="315.98895"
                                 width="354.62338"
                                 id="rect4346"
                                 style="opacity:1;fill:#000000;fill-opacity:1;stroke:none;stroke-width:15;stroke-linejoin:miter;stroke-miterlimit:4;stroke-dasharray:none;stroke-opacity:1" />
                            </g>
                          </g>
                          <rect
                             style="opacity:1;fill:#000000;fill-opacity:1;stroke:none;stroke-width:15;stroke-linejoin:miter;stroke-miterlimit:4;stroke-dasharray:none;stroke-opacity:1"
                             id="rect4376"
                             width="857.29291"
                             height="121.14083"
                             x="-168.96564"
                             y="352.79126"
                             transform="matrix(0.8660254,0.5,0,1,0,-6)"
                             clip-path="url(#clipPath4372)" />
                        </g>
                        <path
                           style="opacity:1;fill:none;fill-opacity:1;stroke:#000000;stroke-width:27.98902512;stroke-linejoin:miter;stroke-miterlimit:4;stroke-dasharray:none;stroke-opacity:1"
                           d="m 321.64578,531.42984 -34.94086,-20.0588 -0.0183,-27.62956 -0.0183,-27.62956 35.45276,-46.77472 35.45276,-46.77473 0,94.46309 c 0,51.95469 -0.2221,94.46308 -0.49357,94.46308 -0.27147,0 -16.21696,-9.02646 -35.43444,-20.0588 z"
                           id="path5006"
                           inkscape:connector-curvature="0" />
                        <path
                           style="opacity:1;fill:none;fill-opacity:1;stroke:#000000;stroke-width:27.98902512;stroke-linejoin:miter;stroke-miterlimit:4;stroke-dasharray:none;stroke-opacity:1"
                           d="m 286.72761,414.09485 -0.0593,-17.04099 34.98628,-46.25912 34.98628,-46.25912 0.54326,16.4682 0.54325,16.46819 -33.19712,43.88972 c -18.25841,24.13935 -34.22,45.21371 -35.47019,46.83192 -1.83671,2.37736 -2.28447,-0.32923 -2.33242,-14.0988 z"
                           id="path5012"
                           inkscape:connector-curvature="0" />
                        <path
                           style="opacity:1;fill:none;fill-opacity:1;stroke:#000000;stroke-width:27.98902512;stroke-linejoin:miter;stroke-miterlimit:4;stroke-dasharray:none;stroke-opacity:1"
                           d="m 320.67028,496.33775 c -3.62698,-2.54043 -4.14705,-4.57539 -4.14705,-16.22663 0,-11.35436 0.72644,-14.3702 4.9186,-20.41948 2.70524,-3.90365 5.22425,-7.09755 5.59781,-7.09755 0.37356,0 0.67919,10.49588 0.67919,23.32419 0,12.8283 -0.65283,23.32418 -1.45075,23.32418 -0.79791,0 -3.31692,-1.30712 -5.5978,-2.90471 z"
                           id="path5014"
                           inkscape:connector-curvature="0" />
                        <path
                           style="opacity:1;fill:none;fill-opacity:1;stroke:#000000;stroke-width:27.98902512;stroke-linejoin:miter;stroke-miterlimit:4;stroke-dasharray:none;stroke-opacity:1"
                           d="m 263.81056,498.17519 c -2.82223,-1.53108 -5.13132,-3.24945 -5.13132,-3.8186 0,-1.24147 11.56231,-17.50535 12.44489,-17.50535 0.33916,0 0.61666,5.45786 0.61666,12.12858 0,6.67072 -0.62976,12.09496 -1.39946,12.05387 -0.76969,-0.0411 -3.70854,-1.32741 -6.53077,-2.8585 z"
                           id="path5016"
                           inkscape:connector-curvature="0" />
                        <path
                           style="opacity:1;fill:none;fill-opacity:1;stroke:#000000;stroke-width:27.98902512;stroke-linejoin:miter;stroke-miterlimit:4;stroke-dasharray:none;stroke-opacity:1"
                           d="m 234.86343,481.37767 c -5.23305,-3.13635 -7.46787,-5.55228 -6.53078,-7.06002 3.3779,-5.43483 41.72423,-55.31039 42.52485,-55.31039 0.48581,0 0.88329,7.82949 0.88329,17.39888 l 0,17.39888 -10.46122,11.9896 c -5.75367,6.59427 -11.34631,13.87885 -12.42809,16.18794 -2.49518,5.32605 -4.2164,5.25162 -13.98805,-0.60489 z"
                           id="path5018"
                           inkscape:connector-curvature="0" />
                        <rect
                           style="opacity:1;fill:none;fill-opacity:1;stroke:#000000;stroke-width:15;stroke-linejoin:miter;stroke-miterlimit:4;stroke-dasharray:none;stroke-opacity:1"
                           id="rect5024"
                           width="48.818367"
                           height="47.498951"
                           x="259.9248"
                           y="485.01364" />
                      </g>
                    </g>
                    <rect
                       style="opacity:1;fill:none;fill-opacity:1;stroke:#000000;stroke-width:15;stroke-linejoin:miter;stroke-miterlimit:4;stroke-dasharray:none;stroke-opacity:1"
                       id="rect5073"
                       width="43.540703"
                       height="21.110645"
                       x="486.86423"
                       y="768.68793" />
                  </g>
                </g>
              </g>
              <path
                 inkscape:connector-curvature="0"
                 id="path5185"
                 d="M 23.324187,360.10032 Z"
                 style="fill:none;fill-rule:evenodd;stroke:#000000;stroke-width:1px;stroke-linecap:butt;stroke-linejoin:miter;stroke-opacity:1" />
              <path
                 inkscape:connector-curvature="0"
                 id="path5187"
                 d="M 25.190122,361.96625 Z"
                 style="fill:none;fill-rule:evenodd;stroke:#000000;stroke-width:1px;stroke-linecap:butt;stroke-linejoin:miter;stroke-opacity:1" />
              <path
                 inkscape:connector-curvature="0"
                 id="path5189"
                 d="m 27.707721,363.29757 232.217089,81.47389 -56.07515,47.49895 z"
                 style="fill:#000000;fill-opacity:1;fill-rule:evenodd;stroke:#000000;stroke-width:1px;stroke-linecap:butt;stroke-linejoin:miter;stroke-opacity:1" />
              <rect
                 style="opacity:1;fill:none;fill-opacity:1;stroke:#000000;stroke-width:19.30495453;stroke-linejoin:miter;stroke-miterlimit:4;stroke-dasharray:none;stroke-opacity:1"
                 id="rect5223"
                 width="877.78845"
                 height="341.802"
                 x="-270.08875"
                 y="823.45062"
                 transform="matrix(0.60373306,-0.79718655,0,1,0.99359266,-7.9743706)"
                 clip-path="url(#clipPath5219)" />
            </g>
            <ellipse
               style="opacity:1;fill:#000000;fill-opacity:1;stroke:#000000;stroke-width:15;stroke-linejoin:miter;stroke-miterlimit:4;stroke-dasharray:none;stroke-opacity:1"
               id="path5269"
               cx="390.94165"
               cy="515.46899"
               rx="50.388035"
               ry="78.188332" />
            <ellipse
               style="opacity:1;fill:#000000;fill-opacity:1;stroke:#000000;stroke-width:15;stroke-linejoin:miter;stroke-miterlimit:4;stroke-dasharray:none;stroke-opacity:1"
               id="path5271"
               cx="271.05289"
               cy="508.51895"
               rx="20.850222"
               ry="36.487888" />
            <ellipse
               style="opacity:1;fill:#000000;fill-opacity:1;stroke:#000000;stroke-width:15;stroke-linejoin:miter;stroke-miterlimit:4;stroke-dasharray:none;stroke-opacity:1"
               id="path5273"
               cx="498.66779"
               cy="781.30933"
               rx="12.162629"
               ry="27.800295" />
            <ellipse
               style="opacity:1;fill:#000000;fill-opacity:1;stroke:#000000;stroke-width:15;stroke-linejoin:miter;stroke-miterlimit:4;stroke-dasharray:none;stroke-opacity:1"
               id="path5275"
               cx="429.16705"
               cy="701.38348"
               rx="22.58774"
               ry="27.800295" />
          </g>
        </g>
        <ellipse
           style="opacity:1;fill:#000000;fill-opacity:1;stroke:#000000;stroke-width:15;stroke-linejoin:miter;stroke-miterlimit:4;stroke-dasharray:none;stroke-opacity:1"
           id="path5326"
           cx="416.57004"
           cy="699.21161"
           rx="16.940805"
           ry="15.203286" />
      </g>
      <circle
         r="33.012852"
         cy="501.56888"
         cx="387.46661"
         id="path5430"
         style="opacity:1;fill:#000000;fill-opacity:1;stroke:#000000;stroke-width:15;stroke-linejoin:miter;stroke-miterlimit:4;stroke-dasharray:none;stroke-opacity:1" />
    </g>
  </g>
</svg>
